<svg width="133" height="107" viewBox="0 0 133 107" fill="none" xmlns="http://www.w3.org/2000/svg">
<path fill-rule="evenodd" clip-rule="evenodd" d="M101.833 64.983C103.373 56.8343 102.604 48.3805 99.5659 40.5962C99.3218 39.9708 99.063 39.3497 98.7896 38.7334L93.5658 41.0509L82.419 45.996C84.3646 50.3814 85.0682 55.1766 84.5102 59.8698L101.833 64.983ZM99.9157 71.9591L82.4815 67.3442C80.6598 71.5165 77.7994 75.1351 74.1942 77.8651L83.4754 93.2512C90.1525 88.6287 95.4498 82.2506 98.7654 74.8033C99.1802 73.8716 99.5641 72.923 99.9157 71.9591ZM50.7037 82.1555C56.3634 83.8246 62.3924 83.5503 67.8425 81.4205L77.008 96.9667C76.9432 96.997 76.8783 97.0271 76.8134 97.0571C76.0365 97.4158 75.2511 97.7513 74.4584 98.0632C65.299 101.668 55.1566 102.141 45.6378 99.3334C34.7399 96.1194 25.4885 88.8505 19.7875 79.0223C14.0864 69.1942 12.3695 57.5547 14.9901 46.4991C17.6106 35.4435 24.3693 25.8129 33.8751 19.5893C43.2745 13.4354 54.6529 11.0755 65.7162 12.976L61.0413 30.3971C54.9666 29.7415 48.8291 31.2049 43.685 34.5729C38.013 38.2864 33.9802 44.0329 32.4165 50.6297C30.8528 57.2265 31.8773 64.1717 35.2791 70.0361C38.6808 75.9005 44.2011 80.2378 50.7037 82.1555ZM73.215 14.9508L68.8151 32.464C73.054 34.3178 76.7684 37.2649 79.5505 41.0509L93.9823 30.4459C89.279 24.0455 82.9857 19.0755 75.8042 15.974C74.9532 15.6064 74.0898 15.2652 73.215 14.9508Z" fill="url(#paint0_linear)"/>
<path d="M98.7896 38.7334C99.063 39.3497 99.3218 39.9708 99.5659 40.5962L131.984 21.5863C133.61 20.4649 132.265 18.8389 130.807 19.736L93.5658 41.0509L98.7896 38.7334Z" fill="url(#paint1_linear)"/>
<path d="M99.9157 71.9591C99.5641 72.923 99.1802 73.8716 98.7654 74.8033L124.808 80.6821C126.378 80.8503 126.546 79.1122 125.368 78.7758L99.9157 71.9591Z" fill="url(#paint2_linear)"/>
<path d="M81.8035 105.296L76.8134 97.0571C76.0365 97.4158 75.2511 97.7513 74.4584 98.0632L79.8972 106.249C80.7382 107.371 82.4202 106.249 81.8035 105.296Z" fill="url(#paint3_linear)"/>
<path d="M76.5331 1.90635L73.215 14.9508C74.0898 15.2652 74.9532 15.6064 75.8042 15.974L78.3833 2.13062C78.5515 1.23353 76.7013 0.897118 76.5331 1.90635Z" fill="url(#paint4_linear)"/>
<path d="M38.4394 60.5578C37.4034 60.7138 36.6815 61.6833 36.9315 62.7007C37.7713 66.1183 39.4698 69.277 41.8793 71.8704C44.2888 74.4639 47.3143 76.3897 50.661 77.4782C51.6573 77.8022 52.6771 77.1534 52.9088 76.1317C53.1405 75.11 52.4951 74.104 51.5057 73.7596C48.9017 72.8534 46.5484 71.322 44.6587 69.2881C42.7691 67.2542 41.4146 64.7948 40.702 62.1313C40.4312 61.1193 39.4753 60.4017 38.4394 60.5578Z" fill="url(#paint5_linear)"/>
<circle cx="115.164" cy="3.47622" r="3.47622" fill="url(#paint6_linear)"/>
<circle cx="5.71895" cy="93.2973" r="5.71895" fill="url(#paint7_linear)"/>
<defs>
<linearGradient id="paint0_linear" x1="73.2595" y1="1.28845" x2="73.2595" y2="106.718" gradientUnits="userSpaceOnUse">
<stop stop-color="#F03838"/>
<stop offset="1" stop-color="#FAD824"/>
</linearGradient>
<linearGradient id="paint1_linear" x1="73.2595" y1="1.28845" x2="73.2595" y2="106.718" gradientUnits="userSpaceOnUse">
<stop stop-color="#F03838"/>
<stop offset="1" stop-color="#FAD824"/>
</linearGradient>
<linearGradient id="paint2_linear" x1="73.2595" y1="1.28845" x2="73.2595" y2="106.718" gradientUnits="userSpaceOnUse">
<stop stop-color="#F03838"/>
<stop offset="1" stop-color="#FAD824"/>
</linearGradient>
<linearGradient id="paint3_linear" x1="73.2595" y1="1.28845" x2="73.2595" y2="106.718" gradientUnits="userSpaceOnUse">
<stop stop-color="#F03838"/>
<stop offset="1" stop-color="#FAD824"/>
</linearGradient>
<linearGradient id="paint4_linear" x1="73.2595" y1="1.28845" x2="73.2595" y2="106.718" gradientUnits="userSpaceOnUse">
<stop stop-color="#F03838"/>
<stop offset="1" stop-color="#FAD824"/>
</linearGradient>
<linearGradient id="paint5_linear" x1="57.0774" y1="37.0049" x2="57.0774" y2="78.4954" gradientUnits="userSpaceOnUse">
<stop stop-color="#F03838"/>
<stop offset="1" stop-color="#FAD824"/>
</linearGradient>
<linearGradient id="paint6_linear" x1="115.164" y1="0" x2="115.164" y2="6.95245" gradientUnits="userSpaceOnUse">
<stop stop-color="#F03838"/>
<stop offset="1" stop-color="#FAD824"/>
</linearGradient>
<linearGradient id="paint7_linear" x1="5.71895" y1="87.5784" x2="5.71895" y2="99.0163" gradientUnits="userSpaceOnUse">
<stop stop-color="#F03838"/>
<stop offset="1" stop-color="#FAD824"/>
</linearGradient>
</defs>
</svg>
