<svg width="210" height="82" viewBox="0 0 210 82" fill="none" xmlns="http://www.w3.org/2000/svg">
<path d="M0 22H188L209.5 58H21.5L0 22Z" fill="url(#paint0_linear_36_361)" fill-opacity="0.15"/>
<path d="M21.7838 57.5L0.880993 22.5H187.716L208.619 57.5H21.7838Z" stroke="white" stroke-opacity="0.06"/>
<g filter="url(#filter0_d_36_361)">
<path d="M56.854 42.9H52.304L51.436 45H49.112L53.48 35.2H55.72L60.102 45H57.722L56.854 42.9ZM56.14 41.178L54.586 37.426L53.032 41.178H56.14ZM68.1916 39.89C68.7889 40.0673 69.2463 40.3567 69.5636 40.758C69.8809 41.1593 70.0396 41.654 70.0396 42.242C70.0396 43.11 69.7083 43.7867 69.0456 44.272C68.3923 44.7573 67.4543 45 66.2316 45H61.4016V35.2H65.9656C67.1043 35.2 67.9909 35.4193 68.6256 35.858C69.2603 36.2967 69.5776 36.922 69.5776 37.734C69.5776 38.2193 69.4563 38.6487 69.2136 39.022C68.9709 39.386 68.6303 39.6753 68.1916 39.89ZM63.6556 39.26H65.7696C66.2643 39.26 66.6376 39.162 66.8896 38.966C67.1416 38.7607 67.2676 38.462 67.2676 38.07C67.2676 37.6873 67.1369 37.3933 66.8756 37.188C66.6236 36.9827 66.2549 36.88 65.7696 36.88H63.6556V39.26ZM66.1476 43.32C67.2116 43.32 67.7436 42.9 67.7436 42.06C67.7436 41.248 67.2116 40.842 66.1476 40.842H63.6556V43.32H66.1476ZM79.1865 37.048H76.0505V45H73.8105V37.048H70.6885V35.2H79.1865V37.048ZM85.1499 45.168C84.1325 45.168 83.2132 44.9487 82.3919 44.51C81.5799 44.0713 80.9405 43.4693 80.4739 42.704C80.0165 41.9293 79.7879 41.0613 79.7879 40.1C79.7879 39.1387 80.0165 38.2753 80.4739 37.51C80.9405 36.7353 81.5799 36.1287 82.3919 35.69C83.2132 35.2513 84.1325 35.032 85.1499 35.032C86.1672 35.032 87.0819 35.2513 87.8939 35.69C88.7059 36.1287 89.3452 36.7353 89.8119 37.51C90.2785 38.2753 90.5119 39.1387 90.5119 40.1C90.5119 41.0613 90.2785 41.9293 89.8119 42.704C89.3452 43.4693 88.7059 44.0713 87.8939 44.51C87.0819 44.9487 86.1672 45.168 85.1499 45.168ZM85.1499 43.236C85.7285 43.236 86.2512 43.1053 86.7179 42.844C87.1845 42.5733 87.5485 42.2 87.8099 41.724C88.0805 41.248 88.2159 40.7067 88.2159 40.1C88.2159 39.4933 88.0805 38.952 87.8099 38.476C87.5485 38 87.1845 37.6313 86.7179 37.37C86.2512 37.0993 85.7285 36.964 85.1499 36.964C84.5712 36.964 84.0485 37.0993 83.5819 37.37C83.1152 37.6313 82.7465 38 82.4759 38.476C82.2145 38.952 82.0839 39.4933 82.0839 40.1C82.0839 40.7067 82.2145 41.248 82.4759 41.724C82.7465 42.2 83.1152 42.5733 83.5819 42.844C84.0485 43.1053 84.5712 43.236 85.1499 43.236ZM96.501 35.2C97.369 35.2 98.1203 35.3447 98.755 35.634C99.399 35.9233 99.8937 36.334 100.239 36.866C100.584 37.398 100.757 38.028 100.757 38.756C100.757 39.4747 100.584 40.1047 100.239 40.646C99.8937 41.178 99.399 41.5887 98.755 41.878C98.1203 42.158 97.369 42.298 96.501 42.298H94.527V45H92.259V35.2H96.501ZM96.375 40.45C97.0563 40.45 97.5743 40.3053 97.929 40.016C98.2837 39.7173 98.461 39.2973 98.461 38.756C98.461 38.2053 98.2837 37.7853 97.929 37.496C97.5743 37.1973 97.0563 37.048 96.375 37.048H94.527V40.45H96.375ZM102.253 35.2H104.507V41.584L109.183 35.2H111.311V45H109.071V38.63L104.395 45H102.253V35.2ZM119.323 39.89C119.893 40.086 120.336 40.394 120.653 40.814C120.98 41.2247 121.143 41.7053 121.143 42.256C121.143 42.8533 120.947 43.3713 120.555 43.81C120.163 44.2487 119.631 44.5847 118.959 44.818C118.297 45.0513 117.569 45.168 116.775 45.168C116.103 45.168 115.431 45.084 114.759 44.916C114.097 44.748 113.467 44.4913 112.869 44.146L113.569 42.522C113.999 42.7833 114.47 42.984 114.983 43.124C115.506 43.2547 116.015 43.32 116.509 43.32C117.181 43.32 117.737 43.1987 118.175 42.956C118.623 42.7133 118.847 42.3727 118.847 41.934C118.847 41.57 118.693 41.2947 118.385 41.108C118.087 40.9213 117.676 40.828 117.153 40.828H114.759V39.12H116.985C117.443 39.12 117.797 39.0267 118.049 38.84C118.311 38.6533 118.441 38.3967 118.441 38.07C118.441 37.6873 118.255 37.3887 117.881 37.174C117.517 36.9593 117.046 36.852 116.467 36.852C116.038 36.852 115.595 36.9127 115.137 37.034C114.68 37.146 114.246 37.3187 113.835 37.552L113.149 35.788C114.185 35.256 115.305 34.99 116.509 34.99C117.275 34.99 117.979 35.102 118.623 35.326C119.267 35.55 119.781 35.8767 120.163 36.306C120.546 36.7353 120.737 37.2347 120.737 37.804C120.737 38.2707 120.611 38.686 120.359 39.05C120.107 39.414 119.762 39.694 119.323 39.89ZM129.575 42.9H125.025L124.157 45H121.833L126.201 35.2H128.441L132.823 45H130.443L129.575 42.9ZM128.861 41.178L127.307 37.426L125.753 41.178H128.861ZM144.398 43.152V47.072H142.312V45H134.122V35.2H136.376V43.152H140.744V35.2H142.998V43.152H144.398ZM145.894 35.2H148.148V41.584L152.824 35.2H154.952V45H152.712V38.63L148.036 45H145.894V35.2ZM165.218 35.2V45H162.978V42.396H160.906L159.17 45H156.776L158.82 42.046C158.157 41.7753 157.648 41.3693 157.294 40.828C156.939 40.2773 156.762 39.6193 156.762 38.854C156.762 38.098 156.934 37.4493 157.28 36.908C157.625 36.3573 158.115 35.9373 158.75 35.648C159.384 35.3493 160.131 35.2 160.99 35.2H165.218ZM161.046 37.048C160.402 37.048 159.907 37.1973 159.562 37.496C159.226 37.7947 159.058 38.238 159.058 38.826C159.058 39.3953 159.221 39.834 159.548 40.142C159.874 40.45 160.355 40.604 160.99 40.604H162.978V37.048H161.046Z" fill="white"/>
</g>
<defs>
<filter id="filter0_d_36_361" x="15.112" y="0.98999" width="184.106" height="80.082" filterUnits="userSpaceOnUse" color-interpolation-filters="sRGB">
<feFlood flood-opacity="0" result="BackgroundImageFix"/>
<feColorMatrix in="SourceAlpha" type="matrix" values="0 0 0 0 0 0 0 0 0 0 0 0 0 0 0 0 0 0 127 0" result="hardAlpha"/>
<feOffset/>
<feGaussianBlur stdDeviation="17"/>
<feComposite in2="hardAlpha" operator="out"/>
<feColorMatrix type="matrix" values="0 0 0 0 1 0 0 0 0 1 0 0 0 0 1 0 0 0 0.55 0"/>
<feBlend mode="normal" in2="BackgroundImageFix" result="effect1_dropShadow_36_361"/>
<feBlend mode="normal" in="SourceGraphic" in2="effect1_dropShadow_36_361" result="shape"/>
</filter>
<linearGradient id="paint0_linear_36_361" x1="1.71382e-07" y1="40.2222" x2="177.5" y2="40.2222" gradientUnits="userSpaceOnUse">
<stop stop-color="white"/>
<stop offset="1" stop-color="white" stop-opacity="0"/>
</linearGradient>
</defs>
</svg>
