<svg width="210" height="36" viewBox="0 0 210 36" fill="none" xmlns="http://www.w3.org/2000/svg">
<path d="M0 0H188L209.5 36H21.5L0 0Z" fill="url(#paint0_linear_14_112)" fill-opacity="0.04"/>
<path d="M21.7838 35.5L0.880993 0.5H187.716L208.619 35.5H21.7838Z" stroke="white" stroke-opacity="0.06"/>
<path opacity="0.25" d="M54.896 20.55H49.688L48.61 23H47.168L51.606 13.2H52.992L57.444 23H55.974L54.896 20.55ZM54.406 19.43L52.292 14.628L50.178 19.43H54.406ZM65.2394 17.918C65.902 18.0767 66.4014 18.3613 66.7374 18.772C67.0827 19.1733 67.2554 19.6913 67.2554 20.326C67.2554 21.1753 66.9427 21.8333 66.3174 22.3C65.7014 22.7667 64.8007 23 63.6154 23H59.1354V13.2H63.3494C64.4227 13.2 65.258 13.4193 65.8554 13.858C66.462 14.2873 66.7654 14.908 66.7654 15.72C66.7654 16.252 66.63 16.7047 66.3594 17.078C66.098 17.4513 65.7247 17.7313 65.2394 17.918ZM60.5214 17.512H63.2514C63.9327 17.512 64.4507 17.3767 64.8054 17.106C65.1694 16.8353 65.3514 16.4387 65.3514 15.916C65.3514 15.3933 65.1694 14.9967 64.8054 14.726C64.4414 14.446 63.9234 14.306 63.2514 14.306H60.5214V17.512ZM63.5874 21.894C65.09 21.894 65.8414 21.334 65.8414 20.214C65.8414 19.654 65.65 19.2433 65.2674 18.982C64.894 18.7113 64.334 18.576 63.5874 18.576H60.5214V21.894H63.5874ZM76.1916 14.418H72.8316V23H71.4596V14.418H68.1136V13.2H76.1916V14.418ZM82.1665 23.112C81.1771 23.112 80.2858 22.8973 79.4925 22.468C78.6991 22.0293 78.0738 21.4273 77.6165 20.662C77.1685 19.8967 76.9445 19.0427 76.9445 18.1C76.9445 17.1573 77.1685 16.3033 77.6165 15.538C78.0738 14.7727 78.6991 14.1753 79.4925 13.746C80.2858 13.3073 81.1771 13.088 82.1665 13.088C83.1465 13.088 84.0331 13.3073 84.8265 13.746C85.6198 14.1753 86.2405 14.7727 86.6885 15.538C87.1365 16.294 87.3605 17.148 87.3605 18.1C87.3605 19.052 87.1365 19.9107 86.6885 20.676C86.2405 21.432 85.6198 22.0293 84.8265 22.468C84.0331 22.8973 83.1465 23.112 82.1665 23.112ZM82.1665 21.866C82.8851 21.866 83.5291 21.7027 84.0985 21.376C84.6771 21.0493 85.1298 20.6013 85.4565 20.032C85.7925 19.4533 85.9605 18.8093 85.9605 18.1C85.9605 17.3907 85.7925 16.7513 85.4565 16.182C85.1298 15.6033 84.6771 15.1507 84.0985 14.824C83.5291 14.4973 82.8851 14.334 82.1665 14.334C81.4478 14.334 80.7945 14.4973 80.2065 14.824C79.6278 15.1507 79.1705 15.6033 78.8345 16.182C78.5078 16.7513 78.3445 17.3907 78.3445 18.1C78.3445 18.8093 78.5078 19.4533 78.8345 20.032C79.1705 20.6013 79.6278 21.0493 80.2065 21.376C80.7945 21.7027 81.4478 21.866 82.1665 21.866ZM93.4457 13.2C94.715 13.2 95.7137 13.5033 96.4417 14.11C97.1697 14.7167 97.5337 15.552 97.5337 16.616C97.5337 17.68 97.1697 18.5153 96.4417 19.122C95.7137 19.7287 94.715 20.032 93.4457 20.032H91.0237V23H89.6237V13.2H93.4457ZM93.4037 18.814C94.2903 18.814 94.967 18.6273 95.4337 18.254C95.9003 17.8713 96.1337 17.3253 96.1337 16.616C96.1337 15.9067 95.9003 15.3653 95.4337 14.992C94.967 14.6093 94.2903 14.418 93.4037 14.418H91.0237V18.814H93.4037ZM99.4811 13.2H100.867V20.76L106.663 13.2H107.951V23H106.579V15.454L100.769 23H99.4811V13.2ZM115.696 17.89C116.312 18.058 116.793 18.352 117.138 18.772C117.484 19.1827 117.656 19.6773 117.656 20.256C117.656 20.8347 117.47 21.3433 117.096 21.782C116.732 22.2113 116.242 22.5427 115.626 22.776C115.02 23 114.357 23.112 113.638 23.112C112.985 23.112 112.336 23.014 111.692 22.818C111.048 22.622 110.46 22.328 109.928 21.936L110.418 20.9C110.848 21.236 111.328 21.488 111.86 21.656C112.392 21.824 112.929 21.908 113.47 21.908C114.254 21.908 114.912 21.7447 115.444 21.418C115.976 21.082 116.242 20.6247 116.242 20.046C116.242 19.5513 116.042 19.1733 115.64 18.912C115.239 18.6413 114.674 18.506 113.946 18.506H111.762V17.372H113.848C114.474 17.372 114.959 17.246 115.304 16.994C115.659 16.7327 115.836 16.3733 115.836 15.916C115.836 15.4027 115.608 14.9967 115.15 14.698C114.693 14.3993 114.114 14.25 113.414 14.25C112.957 14.25 112.49 14.3153 112.014 14.446C111.548 14.5767 111.104 14.7727 110.684 15.034L110.236 13.886C110.731 13.606 111.254 13.396 111.804 13.256C112.355 13.116 112.906 13.046 113.456 13.046C114.147 13.046 114.782 13.1533 115.36 13.368C115.939 13.5827 116.396 13.8953 116.732 14.306C117.078 14.7167 117.25 15.1973 117.25 15.748C117.25 16.2427 117.11 16.6767 116.83 17.05C116.56 17.4233 116.182 17.7033 115.696 17.89ZM126.359 20.55H121.151L120.073 23H118.631L123.069 13.2H124.455L128.907 23H127.437L126.359 20.55ZM125.869 19.43L123.755 14.628L121.641 19.43H125.869ZM140.342 21.782V25.226H139.04V23H130.598V13.2H131.984V21.782H137.444V13.2H138.83V21.782H140.342ZM142.206 13.2H143.592V20.76L149.388 13.2H150.676V23H149.304V15.454L143.494 23H142.206V13.2ZM160.913 13.2V23H159.541V20.144H156.839C156.671 20.144 156.545 20.1393 156.461 20.13L154.501 23H153.017L155.187 19.892C154.487 19.6587 153.95 19.2713 153.577 18.73C153.204 18.1793 153.017 17.512 153.017 16.728C153.017 15.6173 153.372 14.754 154.081 14.138C154.8 13.5127 155.766 13.2 156.979 13.2H160.913ZM154.431 16.714C154.431 17.442 154.641 18.002 155.061 18.394C155.49 18.7767 156.12 18.968 156.951 18.968H159.541V14.418H157.035C156.195 14.418 155.551 14.614 155.103 15.006C154.655 15.398 154.431 15.9673 154.431 16.714Z" fill="white"/>
<defs>
<linearGradient id="paint0_linear_14_112" x1="1.71382e-07" y1="18.2222" x2="177.5" y2="18.2222" gradientUnits="userSpaceOnUse">
<stop stop-color="white"/>
<stop offset="1" stop-color="white" stop-opacity="0"/>
</linearGradient>
</defs>
</svg>
