<svg width="324" height="36" viewBox="0 0 324 36" fill="none" xmlns="http://www.w3.org/2000/svg">
<path d="M0 0H302.5L324 36H21.5L0 0Z" fill="url(#paint0_linear_14_117)" fill-opacity="0.04"/>
<path d="M21.7838 35.5L0.880993 0.5H302.216L323.119 35.5H21.7838Z" stroke="white" stroke-opacity="0.06"/>
<path opacity="0.25" d="M56.63 17.918C57.2927 18.0767 57.792 18.3613 58.128 18.772C58.4733 19.1733 58.646 19.6913 58.646 20.326C58.646 21.1753 58.3333 21.8333 57.708 22.3C57.092 22.7667 56.1913 23 55.006 23H50.526V13.2H54.74C55.8133 13.2 56.6487 13.4193 57.246 13.858C57.8527 14.2873 58.156 14.908 58.156 15.72C58.156 16.252 58.0207 16.7047 57.75 17.078C57.4887 17.4513 57.1153 17.7313 56.63 17.918ZM51.912 17.512H54.642C55.3233 17.512 55.8413 17.3767 56.196 17.106C56.56 16.8353 56.742 16.4387 56.742 15.916C56.742 15.3933 56.56 14.9967 56.196 14.726C55.832 14.446 55.314 14.306 54.642 14.306H51.912V17.512ZM54.978 21.894C56.4807 21.894 57.232 21.334 57.232 20.214C57.232 19.654 57.0407 19.2433 56.658 18.982C56.2847 18.7113 55.7247 18.576 54.978 18.576H51.912V21.894H54.978ZM65.395 23.112C64.4057 23.112 63.5143 22.8973 62.721 22.468C61.9277 22.0293 61.3023 21.4273 60.845 20.662C60.397 19.8967 60.173 19.0427 60.173 18.1C60.173 17.1573 60.397 16.3033 60.845 15.538C61.3023 14.7727 61.9277 14.1753 62.721 13.746C63.5143 13.3073 64.4057 13.088 65.395 13.088C66.375 13.088 67.2617 13.3073 68.055 13.746C68.8483 14.1753 69.469 14.7727 69.917 15.538C70.365 16.294 70.589 17.148 70.589 18.1C70.589 19.052 70.365 19.9107 69.917 20.676C69.469 21.432 68.8483 22.0293 68.055 22.468C67.2617 22.8973 66.375 23.112 65.395 23.112ZM65.395 21.866C66.1137 21.866 66.7577 21.7027 67.327 21.376C67.9057 21.0493 68.3583 20.6013 68.685 20.032C69.021 19.4533 69.189 18.8093 69.189 18.1C69.189 17.3907 69.021 16.7513 68.685 16.182C68.3583 15.6033 67.9057 15.1507 67.327 14.824C66.7577 14.4973 66.1137 14.334 65.395 14.334C64.6763 14.334 64.023 14.4973 63.435 14.824C62.8563 15.1507 62.399 15.6033 62.063 16.182C61.7363 16.7513 61.573 17.3907 61.573 18.1C61.573 18.8093 61.7363 19.4533 62.063 20.032C62.399 20.6013 62.8563 21.0493 63.435 21.376C64.023 21.7027 64.6763 21.866 65.395 21.866ZM77.2342 23.112C76.2542 23.112 75.3675 22.8973 74.5742 22.468C73.7902 22.0293 73.1742 21.432 72.7262 20.676C72.2782 19.9107 72.0542 19.052 72.0542 18.1C72.0542 17.148 72.2782 16.294 72.7262 15.538C73.1742 14.7727 73.7948 14.1753 74.5882 13.746C75.3815 13.3073 76.2682 13.088 77.2482 13.088C78.0135 13.088 78.7135 13.2187 79.3482 13.48C79.9828 13.732 80.5242 14.11 80.9722 14.614L80.0622 15.496C79.3248 14.7213 78.4055 14.334 77.3042 14.334C76.5762 14.334 75.9182 14.4973 75.3302 14.824C74.7422 15.1507 74.2802 15.6033 73.9442 16.182C73.6175 16.7513 73.4542 17.3907 73.4542 18.1C73.4542 18.8093 73.6175 19.4533 73.9442 20.032C74.2802 20.6013 74.7422 21.0493 75.3302 21.376C75.9182 21.7027 76.5762 21.866 77.3042 21.866C78.3962 21.866 79.3155 21.474 80.0622 20.69L80.9722 21.572C80.5242 22.076 79.9782 22.4587 79.3342 22.72C78.6995 22.9813 77.9995 23.112 77.2342 23.112ZM87.0779 23.112C86.0979 23.112 85.2113 22.8973 84.4179 22.468C83.6339 22.0293 83.0179 21.432 82.5699 20.676C82.1219 19.9107 81.8979 19.052 81.8979 18.1C81.8979 17.148 82.1219 16.294 82.5699 15.538C83.0179 14.7727 83.6386 14.1753 84.4319 13.746C85.2253 13.3073 86.1119 13.088 87.0919 13.088C87.8573 13.088 88.5573 13.2187 89.1919 13.48C89.8266 13.732 90.3679 14.11 90.8159 14.614L89.9059 15.496C89.1686 14.7213 88.2493 14.334 87.1479 14.334C86.4199 14.334 85.7619 14.4973 85.1739 14.824C84.5859 15.1507 84.1239 15.6033 83.7879 16.182C83.4613 16.7513 83.2979 17.3907 83.2979 18.1C83.2979 18.8093 83.4613 19.4533 83.7879 20.032C84.1239 20.6013 84.5859 21.0493 85.1739 21.376C85.7619 21.7027 86.4199 21.866 87.1479 21.866C88.2399 21.866 89.1593 21.474 89.9059 20.69L90.8159 21.572C90.3679 22.076 89.8219 22.4587 89.1779 22.72C88.5433 22.9813 87.8433 23.112 87.0779 23.112ZM99.3694 14.418H96.0094V23H94.6374V14.418H91.2914V13.2H99.3694V14.418ZM106.949 20.55H101.741L100.663 23H99.2207L103.659 13.2H105.045L109.497 23H108.027L106.949 20.55ZM106.459 19.43L104.345 14.628L102.231 19.43H106.459ZM119.616 13.2V23H118.216V18.632H112.588V23H111.188V13.2H112.588V17.414H118.216V13.2H119.616ZM127.082 23.112C126.093 23.112 125.202 22.8973 124.408 22.468C123.615 22.0293 122.99 21.4273 122.532 20.662C122.084 19.8967 121.86 19.0427 121.86 18.1C121.86 17.1573 122.084 16.3033 122.532 15.538C122.99 14.7727 123.615 14.1753 124.408 13.746C125.202 13.3073 126.093 13.088 127.082 13.088C128.062 13.088 128.949 13.3073 129.742 13.746C130.536 14.1753 131.156 14.7727 131.604 15.538C132.052 16.294 132.276 17.148 132.276 18.1C132.276 19.052 132.052 19.9107 131.604 20.676C131.156 21.432 130.536 22.0293 129.742 22.468C128.949 22.8973 128.062 23.112 127.082 23.112ZM127.082 21.866C127.801 21.866 128.445 21.7027 129.014 21.376C129.593 21.0493 130.046 20.6013 130.372 20.032C130.708 19.4533 130.876 18.8093 130.876 18.1C130.876 17.3907 130.708 16.7513 130.372 16.182C130.046 15.6033 129.593 15.1507 129.014 14.824C128.445 14.4973 127.801 14.334 127.082 14.334C126.364 14.334 125.71 14.4973 125.122 14.824C124.544 15.1507 124.086 15.6033 123.75 16.182C123.424 16.7513 123.26 17.3907 123.26 18.1C123.26 18.8093 123.424 19.4533 123.75 20.032C124.086 20.6013 124.544 21.0493 125.122 21.376C125.71 21.7027 126.364 21.866 127.082 21.866ZM140.644 17.918C141.306 18.0767 141.806 18.3613 142.142 18.772C142.487 19.1733 142.66 19.6913 142.66 20.326C142.66 21.1753 142.347 21.8333 141.722 22.3C141.106 22.7667 140.205 23 139.02 23H134.54V13.2H138.754C139.827 13.2 140.662 13.4193 141.26 13.858C141.866 14.2873 142.17 14.908 142.17 15.72C142.17 16.252 142.034 16.7047 141.764 17.078C141.502 17.4513 141.129 17.7313 140.644 17.918ZM135.926 17.512H138.656C139.337 17.512 139.855 17.3767 140.21 17.106C140.574 16.8353 140.756 16.4387 140.756 15.916C140.756 15.3933 140.574 14.9967 140.21 14.726C139.846 14.446 139.328 14.306 138.656 14.306H135.926V17.512ZM138.992 21.894C140.494 21.894 141.246 21.334 141.246 20.214C141.246 19.654 141.054 19.2433 140.672 18.982C140.298 18.7113 139.738 18.576 138.992 18.576H135.926V21.894H138.992ZM153.007 13.2V23H151.635V14.418H147.295L147.197 17.288C147.15 18.6413 147.038 19.738 146.861 20.578C146.693 21.418 146.422 22.0527 146.049 22.482C145.675 22.902 145.171 23.112 144.537 23.112C144.247 23.112 143.953 23.0747 143.655 23L143.753 21.754C143.902 21.7913 144.051 21.81 144.201 21.81C144.602 21.81 144.924 21.6513 145.167 21.334C145.409 21.0073 145.591 20.522 145.713 19.878C145.834 19.234 145.913 18.3847 145.951 17.33L146.105 13.2H153.007ZM163.171 21.782V23H156.059V13.2H162.975V14.418H157.459V17.428H162.373V18.618H157.459V21.782H163.171ZM173.798 13.2V23H172.398V18.632H166.77V23H165.37V13.2H166.77V17.414H172.398V13.2H173.798ZM176.854 13.2H178.24V20.76L184.036 13.2H185.324V23H183.952V15.454L178.142 23H176.854V13.2ZM195.492 21.782V23H188.38V13.2H195.296V14.418H189.78V17.428H194.694V18.618H189.78V21.782H195.492ZM207.82 20.55H202.612L201.534 23H200.092L204.53 13.2H205.916L210.368 23H208.898L207.82 20.55ZM207.33 19.43L205.216 14.628L203.102 19.43H207.33ZM215.475 18.688H213.431V23H212.059V13.2H213.431V17.456H215.503L218.583 13.2H220.081L216.581 17.946L220.249 23H218.653L215.475 18.688ZM225.1 18.688H223.056V23H221.684V13.2H223.056V17.456H225.128L228.208 13.2H229.706L226.206 17.946L229.874 23H228.278L225.1 18.688ZM237.542 20.55H232.334L231.256 23H229.814L234.252 13.2H235.638L240.09 23H238.62L237.542 20.55ZM237.052 19.43L234.938 14.628L232.824 19.43H237.052ZM249.339 13.2L244.985 21.278C244.64 21.922 244.234 22.4027 243.767 22.72C243.3 23.0373 242.792 23.196 242.241 23.196C241.812 23.196 241.373 23.098 240.925 22.902L241.289 21.782C241.634 21.9033 241.942 21.964 242.213 21.964C242.829 21.964 243.338 21.6373 243.739 20.984L243.963 20.634L240.015 13.2H241.513L244.691 19.416L247.953 13.2H249.339ZM259.22 13.2V23H257.82V18.632H252.192V23H250.792V13.2H252.192V17.414H257.82V13.2H259.22ZM269.01 14.418H265.65V23H264.278V14.418H260.932V13.2H269.01V14.418ZM276.589 20.55H271.381L270.303 23H268.861L273.299 13.2H274.685L279.137 23H277.667L276.589 20.55ZM276.099 19.43L273.985 14.628L271.871 19.43H276.099Z" fill="white"/>
<defs>
<linearGradient id="paint0_linear_14_117" x1="1.71382e-07" y1="18.2222" x2="177.5" y2="18.2222" gradientUnits="userSpaceOnUse">
<stop stop-color="white"/>
<stop offset="1" stop-color="white" stop-opacity="0"/>
</linearGradient>
</defs>
</svg>
