<svg width="324" height="79" viewBox="0 0 324 79" fill="none" xmlns="http://www.w3.org/2000/svg">
<path d="M0 21H302L324 57H22L0 21Z" fill="url(#paint0_linear_36_420)" fill-opacity="0.15"/>
<path d="M22.2804 56.5L0.891528 21.5H301.72L323.108 56.5H22.2804Z" stroke="white" stroke-opacity="0.06"/>
<g filter="url(#filter0_d_36_420)">
<path d="M55.008 38.89C55.6053 39.0673 56.0627 39.3567 56.38 39.758C56.6973 40.1593 56.856 40.654 56.856 41.242C56.856 42.11 56.5247 42.7867 55.862 43.272C55.2087 43.7573 54.2707 44 53.048 44H48.218V34.2H52.782C53.9207 34.2 54.8073 34.4193 55.442 34.858C56.0767 35.2967 56.394 35.922 56.394 36.734C56.394 37.2193 56.2727 37.6487 56.03 38.022C55.7873 38.386 55.4467 38.6753 55.008 38.89ZM50.472 38.26H52.586C53.0807 38.26 53.454 38.162 53.706 37.966C53.958 37.7607 54.084 37.462 54.084 37.07C54.084 36.6873 53.9533 36.3933 53.692 36.188C53.44 35.9827 53.0713 35.88 52.586 35.88H50.472V38.26ZM52.964 42.32C54.028 42.32 54.56 41.9 54.56 41.06C54.56 40.248 54.028 39.842 52.964 39.842H50.472V42.32H52.964ZM63.3256 44.168C62.3083 44.168 61.389 43.9487 60.5676 43.51C59.7556 43.0713 59.1163 42.4693 58.6496 41.704C58.1923 40.9293 57.9636 40.0613 57.9636 39.1C57.9636 38.1387 58.1923 37.2753 58.6496 36.51C59.1163 35.7353 59.7556 35.1287 60.5676 34.69C61.389 34.2513 62.3083 34.032 63.3256 34.032C64.343 34.032 65.2576 34.2513 66.0696 34.69C66.8816 35.1287 67.521 35.7353 67.9876 36.51C68.4543 37.2753 68.6876 38.1387 68.6876 39.1C68.6876 40.0613 68.4543 40.9293 67.9876 41.704C67.521 42.4693 66.8816 43.0713 66.0696 43.51C65.2576 43.9487 64.343 44.168 63.3256 44.168ZM63.3256 42.236C63.9043 42.236 64.427 42.1053 64.8936 41.844C65.3603 41.5733 65.7243 41.2 65.9856 40.724C66.2563 40.248 66.3916 39.7067 66.3916 39.1C66.3916 38.4933 66.2563 37.952 65.9856 37.476C65.7243 37 65.3603 36.6313 64.8936 36.37C64.427 36.0993 63.9043 35.964 63.3256 35.964C62.747 35.964 62.2243 36.0993 61.7576 36.37C61.291 36.6313 60.9223 37 60.6516 37.476C60.3903 37.952 60.2596 38.4933 60.2596 39.1C60.2596 39.7067 60.3903 40.248 60.6516 40.724C60.9223 41.2 61.291 41.5733 61.7576 41.844C62.2243 42.1053 62.747 42.236 63.3256 42.236ZM75.0688 44.168C74.0701 44.168 73.1648 43.9533 72.3528 43.524C71.5501 43.0853 70.9155 42.4833 70.4488 41.718C69.9915 40.9433 69.7628 40.0707 69.7628 39.1C69.7628 38.1293 69.9915 37.2613 70.4488 36.496C70.9155 35.7213 71.5501 35.1193 72.3528 34.69C73.1648 34.2513 74.0748 34.032 75.0828 34.032C75.9321 34.032 76.6975 34.1813 77.3788 34.48C78.0695 34.7787 78.6481 35.208 79.1148 35.768L77.6588 37.112C76.9961 36.3467 76.1748 35.964 75.1948 35.964C74.5881 35.964 74.0468 36.0993 73.5708 36.37C73.0948 36.6313 72.7215 37 72.4508 37.476C72.1895 37.952 72.0588 38.4933 72.0588 39.1C72.0588 39.7067 72.1895 40.248 72.4508 40.724C72.7215 41.2 73.0948 41.5733 73.5708 41.844C74.0468 42.1053 74.5881 42.236 75.1948 42.236C76.1748 42.236 76.9961 41.8487 77.6588 41.074L79.1148 42.418C78.6481 42.9873 78.0695 43.4213 77.3788 43.72C76.6881 44.0187 75.9181 44.168 75.0688 44.168ZM85.0219 44.168C84.0233 44.168 83.1179 43.9533 82.3059 43.524C81.5033 43.0853 80.8686 42.4833 80.4019 41.718C79.9446 40.9433 79.7159 40.0707 79.7159 39.1C79.7159 38.1293 79.9446 37.2613 80.4019 36.496C80.8686 35.7213 81.5033 35.1193 82.3059 34.69C83.1179 34.2513 84.0279 34.032 85.0359 34.032C85.8853 34.032 86.6506 34.1813 87.3319 34.48C88.0226 34.7787 88.6013 35.208 89.0679 35.768L87.6119 37.112C86.9493 36.3467 86.1279 35.964 85.1479 35.964C84.5413 35.964 83.9999 36.0993 83.5239 36.37C83.0479 36.6313 82.6746 37 82.4039 37.476C82.1426 37.952 82.0119 38.4933 82.0119 39.1C82.0119 39.7067 82.1426 40.248 82.4039 40.724C82.6746 41.2 83.0479 41.5733 83.5239 41.844C83.9999 42.1053 84.5413 42.236 85.1479 42.236C86.1279 42.236 86.9493 41.8487 87.6119 41.074L89.0679 42.418C88.6013 42.9873 88.0226 43.4213 87.3319 43.72C86.6413 44.0187 85.8713 44.168 85.0219 44.168ZM97.9404 36.048H94.8044V44H92.5644V36.048H89.4424V34.2H97.9404V36.048ZM105.508 41.9H100.958L100.09 44H97.7663L102.134 34.2H104.374L108.756 44H106.376L105.508 41.9ZM104.794 40.178L103.24 36.426L101.686 40.178H104.794ZM119.044 34.2V44H116.776V39.982H112.324V44H110.056V34.2H112.324V38.064H116.776V34.2H119.044ZM126.175 44.168C125.158 44.168 124.239 43.9487 123.417 43.51C122.605 43.0713 121.966 42.4693 121.499 41.704C121.042 40.9293 120.813 40.0613 120.813 39.1C120.813 38.1387 121.042 37.2753 121.499 36.51C121.966 35.7353 122.605 35.1287 123.417 34.69C124.239 34.2513 125.158 34.032 126.175 34.032C127.193 34.032 128.107 34.2513 128.919 34.69C129.731 35.1287 130.371 35.7353 130.837 36.51C131.304 37.2753 131.537 38.1387 131.537 39.1C131.537 40.0613 131.304 40.9293 130.837 41.704C130.371 42.4693 129.731 43.0713 128.919 43.51C128.107 43.9487 127.193 44.168 126.175 44.168ZM126.175 42.236C126.754 42.236 127.277 42.1053 127.743 41.844C128.21 41.5733 128.574 41.2 128.835 40.724C129.106 40.248 129.241 39.7067 129.241 39.1C129.241 38.4933 129.106 37.952 128.835 37.476C128.574 37 128.21 36.6313 127.743 36.37C127.277 36.0993 126.754 35.964 126.175 35.964C125.597 35.964 125.074 36.0993 124.607 36.37C124.141 36.6313 123.772 37 123.501 37.476C123.24 37.952 123.109 38.4933 123.109 39.1C123.109 39.7067 123.24 40.248 123.501 40.724C123.772 41.2 124.141 41.5733 124.607 41.844C125.074 42.1053 125.597 42.236 126.175 42.236ZM140.074 38.89C140.672 39.0673 141.129 39.3567 141.446 39.758C141.764 40.1593 141.922 40.654 141.922 41.242C141.922 42.11 141.591 42.7867 140.928 43.272C140.275 43.7573 139.337 44 138.114 44H133.284V34.2H137.848C138.987 34.2 139.874 34.4193 140.508 34.858C141.143 35.2967 141.46 35.922 141.46 36.734C141.46 37.2193 141.339 37.6487 141.096 38.022C140.854 38.386 140.513 38.6753 140.074 38.89ZM135.538 38.26H137.652C138.147 38.26 138.52 38.162 138.772 37.966C139.024 37.7607 139.15 37.462 139.15 37.07C139.15 36.6873 139.02 36.3933 138.758 36.188C138.506 35.9827 138.138 35.88 137.652 35.88H135.538V38.26ZM138.03 42.32C139.094 42.32 139.626 41.9 139.626 41.06C139.626 40.248 139.094 39.842 138.03 39.842H135.538V42.32H138.03ZM152.452 34.2V44H150.212V36.048H146.852L146.782 38.092C146.735 39.4827 146.623 40.612 146.446 41.48C146.269 42.3387 145.97 43.0013 145.55 43.468C145.139 43.9253 144.561 44.154 143.814 44.154C143.506 44.154 143.133 44.1027 142.694 44L142.834 42.082C142.955 42.1193 143.091 42.138 143.24 42.138C143.781 42.138 144.159 41.8207 144.374 41.186C144.589 40.542 144.724 39.5387 144.78 38.176L144.92 34.2H152.452ZM162.488 42.18V44H154.9V34.2H162.306V36.02H157.154V38.148H161.704V39.912H157.154V42.18H162.488ZM173.308 34.2V44H171.04V39.982H166.588V44H164.32V34.2H166.588V38.064H171.04V34.2H173.308ZM175.763 34.2H178.017V40.584L182.693 34.2H184.821V44H182.581V37.63L177.905 44H175.763V34.2ZM194.849 42.18V44H187.261V34.2H194.667V36.02H189.515V38.148H194.065V39.912H189.515V42.18H194.849ZM207.282 41.9H202.732L201.864 44H199.54L203.908 34.2H206.148L210.53 44H208.15L207.282 41.9ZM206.568 40.178L205.014 36.426L203.46 40.178H206.568ZM215.623 40.052H214.055V44H211.801V34.2H214.055V38.162H215.679L218.255 34.2H220.649L217.443 38.932L220.747 44H218.171L215.623 40.052ZM225.604 40.052H224.036V44H221.782V34.2H224.036V38.162H225.66L228.236 34.2H230.63L227.424 38.932L230.728 44H228.152L225.604 40.052ZM238.235 41.9H233.685L232.817 44H230.493L234.861 34.2H237.101L241.483 44H239.103L238.235 41.9ZM237.521 40.178L235.967 36.426L234.413 40.178H237.521ZM251.125 34.2L246.953 41.956C246.551 42.7027 246.066 43.2673 245.497 43.65C244.937 44.0327 244.325 44.224 243.663 44.224C243.149 44.224 242.617 44.112 242.067 43.888L242.613 42.166C243.005 42.2873 243.331 42.348 243.593 42.348C243.873 42.348 244.125 42.2827 244.349 42.152C244.573 42.012 244.778 41.7973 244.965 41.508L245.049 41.396L241.185 34.2H243.607L246.211 39.464L248.899 34.2H251.125ZM261.19 34.2V44H258.922V39.982H254.47V44H252.202V34.2H254.47V38.064H258.922V34.2H261.19ZM271.136 36.048H268V44H265.76V36.048H262.638V34.2H271.136V36.048ZM278.704 41.9H274.154L273.286 44H270.962L275.33 34.2H277.57L281.952 44H279.572L278.704 41.9ZM277.99 40.178L276.436 36.426L274.882 40.178H277.99Z" fill="white"/>
</g>
<defs>
<filter id="filter0_d_36_420" x="14.218" y="0.0319824" width="301.734" height="78.1921" filterUnits="userSpaceOnUse" color-interpolation-filters="sRGB">
<feFlood flood-opacity="0" result="BackgroundImageFix"/>
<feColorMatrix in="SourceAlpha" type="matrix" values="0 0 0 0 0 0 0 0 0 0 0 0 0 0 0 0 0 0 127 0" result="hardAlpha"/>
<feOffset/>
<feGaussianBlur stdDeviation="17"/>
<feComposite in2="hardAlpha" operator="out"/>
<feColorMatrix type="matrix" values="0 0 0 0 1 0 0 0 0 1 0 0 0 0 1 0 0 0 0.55 0"/>
<feBlend mode="normal" in2="BackgroundImageFix" result="effect1_dropShadow_36_420"/>
<feBlend mode="normal" in="SourceGraphic" in2="effect1_dropShadow_36_420" result="shape"/>
</filter>
<linearGradient id="paint0_linear_36_420" x1="2.65049e-07" y1="39.2222" x2="274.511" y2="39.2222" gradientUnits="userSpaceOnUse">
<stop stop-color="white"/>
<stop offset="1" stop-color="white" stop-opacity="0"/>
</linearGradient>
</defs>
</svg>
