<svg width="210" height="81" viewBox="0 0 210 81" fill="none" xmlns="http://www.w3.org/2000/svg">
<path d="M0 21H188L209.5 57H21.5L0 21Z" fill="url(#paint0_linear_14_116)" fill-opacity="0.15"/>
<path d="M21.7838 56.5L0.880993 21.5H187.716L208.619 56.5H21.7838Z" stroke="white" stroke-opacity="0.06"/>
<g filter="url(#filter0_d_14_116)">
<path d="M54.46 34.2C55.328 34.2 56.0793 34.3447 56.714 34.634C57.358 34.9233 57.8527 35.334 58.198 35.866C58.5433 36.398 58.716 37.028 58.716 37.756C58.716 38.4747 58.5433 39.1047 58.198 39.646C57.8527 40.178 57.358 40.5887 56.714 40.878C56.0793 41.158 55.328 41.298 54.46 41.298H52.486V44H50.218V34.2H54.46ZM54.334 39.45C55.0153 39.45 55.5333 39.3053 55.888 39.016C56.2427 38.7173 56.42 38.2973 56.42 37.756C56.42 37.2053 56.2427 36.7853 55.888 36.496C55.5333 36.1973 55.0153 36.048 54.334 36.048H52.486V39.45H54.334ZM67.8001 42.18V44H60.2121V34.2H67.6181V36.02H62.4661V38.148H67.0161V39.912H62.4661V42.18H67.8001ZM76.5341 36.048H71.8721L71.8861 44H69.6321V34.2H76.5481L76.5341 36.048ZM77.9309 34.2H80.1849V40.584L84.8609 34.2H86.9889V44H84.7489V37.63L80.0729 44H77.9309V34.2ZM94.0629 44.168C93.0643 44.168 92.1589 43.9533 91.3469 43.524C90.5443 43.0853 89.9096 42.4833 89.4429 41.718C88.9856 40.9433 88.7569 40.0707 88.7569 39.1C88.7569 38.1293 88.9856 37.2613 89.4429 36.496C89.9096 35.7213 90.5443 35.1193 91.3469 34.69C92.1589 34.2513 93.0689 34.032 94.0769 34.032C94.9263 34.032 95.6916 34.1813 96.3729 34.48C97.0636 34.7787 97.6423 35.208 98.1089 35.768L96.6529 37.112C95.9903 36.3467 95.1689 35.964 94.1889 35.964C93.5823 35.964 93.0409 36.0993 92.5649 36.37C92.0889 36.6313 91.7156 37 91.4449 37.476C91.1836 37.952 91.0529 38.4933 91.0529 39.1C91.0529 39.7067 91.1836 40.248 91.4449 40.724C91.7156 41.2 92.0889 41.5733 92.5649 41.844C93.0409 42.1053 93.5823 42.236 94.1889 42.236C95.1689 42.236 95.9903 41.8487 96.6529 41.074L98.1089 42.418C97.6423 42.9873 97.0636 43.4213 96.3729 43.72C95.6823 44.0187 94.9123 44.168 94.0629 44.168ZM106.981 36.048H103.845V44H101.605V36.048H98.4834V34.2H106.981V36.048ZM112.648 34.2C113.516 34.2 114.267 34.3447 114.901 34.634C115.546 34.9233 116.04 35.334 116.386 35.866C116.731 36.398 116.904 37.028 116.904 37.756C116.904 38.4747 116.731 39.1047 116.386 39.646C116.04 40.178 115.546 40.5887 114.901 40.878C114.267 41.158 113.516 41.298 112.648 41.298H110.674V44H108.406V34.2H112.648ZM112.522 39.45C113.203 39.45 113.721 39.3053 114.076 39.016C114.43 38.7173 114.608 38.2973 114.608 37.756C114.608 37.2053 114.43 36.7853 114.076 36.496C113.721 36.1973 113.203 36.048 112.522 36.048H110.674V39.45H112.522ZM124.543 41.9H119.993L119.125 44H116.801L121.169 34.2H123.409L127.791 44H125.411L124.543 41.9ZM123.829 40.178L122.275 36.426L120.721 40.178H123.829ZM139.367 42.152V46.072H137.281V44H129.091V34.2H131.345V42.152H135.713V34.2H137.967V42.152H139.367ZM140.863 34.2H143.117V40.584L147.793 34.2H149.921V44H147.681V37.63L143.005 44H140.863V34.2ZM160.187 34.2V44H157.947V41.396H155.875L154.139 44H151.745L153.789 41.046C153.126 40.7753 152.617 40.3693 152.263 39.828C151.908 39.2773 151.731 38.6193 151.731 37.854C151.731 37.098 151.903 36.4493 152.249 35.908C152.594 35.3573 153.084 34.9373 153.719 34.648C154.353 34.3493 155.1 34.2 155.959 34.2H160.187ZM156.015 36.048C155.371 36.048 154.876 36.1973 154.531 36.496C154.195 36.7947 154.027 37.238 154.027 37.826C154.027 38.3953 154.19 38.834 154.517 39.142C154.843 39.45 155.324 39.604 155.959 39.604H157.947V36.048H156.015Z" fill="white"/>
</g>
<defs>
<filter id="filter0_d_14_116" x="16.218" y="0.0319977" width="177.969" height="80.04" filterUnits="userSpaceOnUse" color-interpolation-filters="sRGB">
<feFlood flood-opacity="0" result="BackgroundImageFix"/>
<feColorMatrix in="SourceAlpha" type="matrix" values="0 0 0 0 0 0 0 0 0 0 0 0 0 0 0 0 0 0 127 0" result="hardAlpha"/>
<feOffset/>
<feGaussianBlur stdDeviation="17"/>
<feComposite in2="hardAlpha" operator="out"/>
<feColorMatrix type="matrix" values="0 0 0 0 1 0 0 0 0 1 0 0 0 0 1 0 0 0 0.55 0"/>
<feBlend mode="normal" in2="BackgroundImageFix" result="effect1_dropShadow_14_116"/>
<feBlend mode="normal" in="SourceGraphic" in2="effect1_dropShadow_14_116" result="shape"/>
</filter>
<linearGradient id="paint0_linear_14_116" x1="1.71382e-07" y1="39.2222" x2="177.5" y2="39.2222" gradientUnits="userSpaceOnUse">
<stop stop-color="white"/>
<stop offset="1" stop-color="white" stop-opacity="0"/>
</linearGradient>
</defs>
</svg>
