<svg width="210" height="36" viewBox="0 0 210 36" fill="none" xmlns="http://www.w3.org/2000/svg">
<path d="M0 0H188L209.5 36H21.5L0 0Z" fill="url(#paint0_linear_36_358)" fill-opacity="0.04"/>
<path d="M21.7838 35.5L0.880993 0.5H187.716L208.619 35.5H21.7838Z" stroke="white" stroke-opacity="0.06"/>
<path opacity="0.25" d="M52.348 13.2C53.6173 13.2 54.616 13.5033 55.344 14.11C56.072 14.7167 56.436 15.552 56.436 16.616C56.436 17.68 56.072 18.5153 55.344 19.122C54.616 19.7287 53.6173 20.032 52.348 20.032H49.926V23H48.526V13.2H52.348ZM52.306 18.814C53.1927 18.814 53.8693 18.6273 54.336 18.254C54.8027 17.8713 55.036 17.3253 55.036 16.616C55.036 15.9067 54.8027 15.3653 54.336 14.992C53.8693 14.6093 53.1927 14.418 52.306 14.418H49.926V18.814H52.306ZM65.4954 21.782V23H58.3834V13.2H65.2994V14.418H59.7834V17.428H64.6974V18.618H59.7834V21.782H65.4954ZM74.106 14.418H69.066L69.08 23H67.694V13.2H74.12L74.106 14.418ZM75.7877 13.2H77.1737V20.76L82.9697 13.2H84.2577V23H82.8857V15.454L77.0757 23H75.7877V13.2ZM91.6951 23.112C90.7151 23.112 89.8284 22.8973 89.0351 22.468C88.2511 22.0293 87.6351 21.432 87.1871 20.676C86.7391 19.9107 86.5151 19.052 86.5151 18.1C86.5151 17.148 86.7391 16.294 87.1871 15.538C87.6351 14.7727 88.2558 14.1753 89.0491 13.746C89.8424 13.3073 90.7291 13.088 91.7091 13.088C92.4744 13.088 93.1744 13.2187 93.8091 13.48C94.4438 13.732 94.9851 14.11 95.4331 14.614L94.5231 15.496C93.7858 14.7213 92.8664 14.334 91.7651 14.334C91.0371 14.334 90.3791 14.4973 89.7911 14.824C89.2031 15.1507 88.7411 15.6033 88.4051 16.182C88.0784 16.7513 87.9151 17.3907 87.9151 18.1C87.9151 18.8093 88.0784 19.4533 88.4051 20.032C88.7411 20.6013 89.2031 21.0493 89.7911 21.376C90.3791 21.7027 91.0371 21.866 91.7651 21.866C92.8571 21.866 93.7764 21.474 94.5231 20.69L95.4331 21.572C94.9851 22.076 94.4391 22.4587 93.7951 22.72C93.1604 22.9813 92.4604 23.112 91.6951 23.112ZM103.987 14.418H100.627V23H99.2546V14.418H95.9086V13.2H103.987V14.418ZM109.51 13.2C110.779 13.2 111.778 13.5033 112.506 14.11C113.234 14.7167 113.598 15.552 113.598 16.616C113.598 17.68 113.234 18.5153 112.506 19.122C111.778 19.7287 110.779 20.032 109.51 20.032H107.088V23H105.688V13.2H109.51ZM109.468 18.814C110.355 18.814 111.031 18.6273 111.498 18.254C111.965 17.8713 112.198 17.3253 112.198 16.616C112.198 15.9067 111.965 15.3653 111.498 14.992C111.031 14.6093 110.355 14.418 109.468 14.418H107.088V18.814H109.468ZM121.423 20.55H116.215L115.137 23H113.695L118.133 13.2H119.519L123.971 23H122.501L121.423 20.55ZM120.933 19.43L118.819 14.628L116.705 19.43H120.933ZM135.407 21.782V25.226H134.105V23H125.663V13.2H127.049V21.782H132.509V13.2H133.895V21.782H135.407ZM137.27 13.2H138.656V20.76L144.452 13.2H145.74V23H144.368V15.454L138.558 23H137.27V13.2ZM155.978 13.2V23H154.606V20.144H151.904C151.736 20.144 151.61 20.1393 151.526 20.13L149.566 23H148.082L150.252 19.892C149.552 19.6587 149.015 19.2713 148.642 18.73C148.268 18.1793 148.082 17.512 148.082 16.728C148.082 15.6173 148.436 14.754 149.146 14.138C149.864 13.5127 150.83 13.2 152.044 13.2H155.978ZM149.496 16.714C149.496 17.442 149.706 18.002 150.126 18.394C150.555 18.7767 151.185 18.968 152.016 18.968H154.606V14.418H152.1C151.26 14.418 150.616 14.614 150.168 15.006C149.72 15.398 149.496 15.9673 149.496 16.714Z" fill="white"/>
<defs>
<linearGradient id="paint0_linear_36_358" x1="1.71382e-07" y1="18.2222" x2="177.5" y2="18.2222" gradientUnits="userSpaceOnUse">
<stop stop-color="white"/>
<stop offset="1" stop-color="white" stop-opacity="0"/>
</linearGradient>
</defs>
</svg>
