<svg width="47" height="47" viewBox="0 0 47 47" fill="none" xmlns="http://www.w3.org/2000/svg">
<path d="M33.7417 23.5834C32.8386 23.1541 31.917 22.7843 30.9793 22.4744C34.0162 20.1949 35.9843 16.5652 35.9843 12.4844C35.9843 5.60053 30.3839 0 23.5 0C16.616 0 11.0156 5.60053 11.0156 12.4844C11.0156 16.5697 12.9881 20.203 16.0307 22.4821C13.243 23.3998 10.6273 24.8279 8.33787 26.7111C4.13982 30.1642 1.22095 34.9807 0.119117 40.2734C-0.226223 41.9318 0.187506 43.6352 1.254 44.9466C2.31527 46.2516 3.88894 47 5.57139 47H28.1816C29.1956 47 30.0175 46.1781 30.0175 45.1641C30.0175 44.1501 29.1956 43.3281 28.1816 43.3281H5.57139C4.78763 43.3281 4.31478 42.8906 4.10273 42.6299C3.73656 42.1797 3.59482 41.5935 3.71388 41.0217C5.61913 31.87 13.6914 25.1848 23.0133 24.9594C23.1747 24.9656 23.3369 24.9688 23.5 24.9688C23.6646 24.9688 23.8284 24.9655 23.9914 24.9592C26.8482 25.0262 29.5956 25.6782 32.1654 26.8998C33.0813 27.3349 34.1764 26.9456 34.6117 26.0297C35.047 25.114 34.6576 24.0187 33.7417 23.5834ZM23.9477 21.2856C23.7988 21.2829 23.6495 21.2815 23.5 21.2815C23.3518 21.2815 23.2036 21.283 23.0557 21.2858C18.402 21.0536 14.6875 17.1947 14.6875 12.4844C14.6875 7.62511 18.6407 3.67188 23.5 3.67188C28.3592 3.67188 32.3125 7.62511 32.3125 12.4844C32.3125 17.1935 28.5997 21.0517 23.9477 21.2856Z" fill="#9A9A9A" fill-opacity="0.3"/>
<path d="M45.1641 36.4434H40.1152V31.3945C40.1152 30.3805 39.2933 29.5586 38.2793 29.5586C37.2653 29.5586 36.4434 30.3805 36.4434 31.3945V36.4434H31.3945C30.3805 36.4434 29.5586 37.2653 29.5586 38.2793C29.5586 39.2933 30.3805 40.1152 31.3945 40.1152H36.4434V45.1641C36.4434 46.1781 37.2653 47 38.2793 47C39.2933 47 40.1152 46.1781 40.1152 45.1641V40.1152H45.1641C46.1781 40.1152 47 39.2933 47 38.2793C47 37.2653 46.1781 36.4434 45.1641 36.4434Z" fill="#9A9A9A" fill-opacity="0.3"/>
</svg>
