<svg width="30" height="30" viewBox="0 0 30 30" fill="none" xmlns="http://www.w3.org/2000/svg">
<g clip-path="url(#clip0)">
<path d="M15 0C23.2843 0 30.0001 6.71576 30.0001 15C30.0001 23.2843 23.2843 30.0001 15 30.0001C6.71576 30.0001 0 23.2843 0 15C0 6.71576 6.71576 0 15 0Z" fill="#F4B844"/>
<path d="M14.9991 26.3029C21.242 26.3029 26.3029 21.242 26.3029 14.9991C26.3029 8.7562 21.242 3.69531 14.9991 3.69531C8.7562 3.69531 3.69531 8.7562 3.69531 14.9991C3.69531 21.242 8.7562 26.3029 14.9991 26.3029Z" fill="#FEDB41"/>
<path d="M14.9992 13.8878C13.929 13.8878 13.0614 13.0202 13.0614 11.95C13.0614 10.8798 13.929 10.0122 14.9992 10.0122C16.0694 10.0122 16.9369 10.8798 16.9369 11.95C16.9369 12.3464 17.2583 12.6677 17.6546 12.6677C18.051 12.6677 18.3723 12.3464 18.3723 11.95C18.3581 10.375 17.2559 9.01949 15.7169 8.68443V7.82317C15.7169 7.42678 15.3956 7.10547 14.9992 7.10547C14.6028 7.10547 14.2815 7.42678 14.2815 7.82317V8.68443C12.4768 9.14676 11.3886 10.9846 11.851 12.7893C12.2223 14.2386 13.504 15.2702 14.9992 15.3232C16.0694 15.3232 16.9369 16.1908 16.9369 17.261C16.9369 18.3312 16.0694 19.1988 14.9992 19.1988C13.929 19.1988 13.0614 18.3312 13.0614 17.261C13.0614 16.8646 12.7401 16.5433 12.3437 16.5433C11.9473 16.5433 11.626 16.8646 11.626 17.261C11.6267 18.8408 12.735 20.2038 14.2815 20.5265V21.8184C14.2815 22.2148 14.6028 22.5361 14.9992 22.5361C15.3956 22.5361 15.7169 22.2148 15.7169 21.8184V20.5265C17.5215 20.0642 18.6097 18.2264 18.1473 16.4217C17.776 14.9723 16.4943 13.9407 14.9992 13.8878Z" fill="white"/>
</g>
<defs>
<clipPath id="clip0">
<rect width="30" height="30" fill="white"/>
</clipPath>
</defs>
</svg>
