<svg width="15" height="15" viewBox="0 0 15 15" fill="none" xmlns="http://www.w3.org/2000/svg">
<path fill-rule="evenodd" clip-rule="evenodd" d="M15 5C15 2.23858 12.7614 0 10 0H5C2.23858 0 0 2.23858 0 5V10C0 12.7614 2.23858 15 5 15H10C12.7614 15 15 12.7614 15 10V5ZM10.5616 5.93836H8.73288C8.73288 4.96849 8.32192 4.74658 7.99315 4.62329C7.71233 4.55479 7.08082 4.52466 6.80137 4.86986C6.50437 5.23674 6.56387 5.52936 6.62624 5.8361C6.63723 5.89014 6.6483 5.94461 6.65753 6C6.87237 6.39898 7.35078 6.58913 8.00719 6.85003C8.22974 6.93848 8.47274 7.03507 8.73288 7.15068C9.4726 7.47945 10.7671 8.13699 10.5616 9.76027C10.3224 11.6507 8.21918 11.8151 8.09589 11.8151V12.9247H7.10959V11.8151C4.93973 11.6836 4.39726 9.93836 4.39726 9.08219H6.24658C6.25149 9.1117 6.25435 9.15129 6.25775 9.19845C6.28279 9.54537 6.33737 10.3015 7.4589 10.4589C8.79452 10.6464 9.30822 8.97945 7.93151 8.42466C5.81986 7.66911 5.49819 7.27278 5.24444 6.96014C5.22905 6.94117 5.21391 6.92252 5.19863 6.90411C4.06849 5.38356 5.19863 3.24658 7.21233 3.24658V1.99315H8.23973V3.24658C10.2123 3.52603 10.6096 5.15753 10.5616 5.93836Z" fill="#38D647"/>
</svg>
