<svg width="32" height="33" viewBox="0 0 32 33" fill="none" xmlns="http://www.w3.org/2000/svg">
<path fill-rule="evenodd" clip-rule="evenodd" d="M9.95628 8.07432C11.7198 6.26154 13.9976 7.69665 14.9161 8.64081L17.4905 5.99446L25.938 14.8722L23.7336 17.1382C25.0562 18.0446 25.0195 20.5372 24.8358 21.6701L17.1205 29.601C16.0776 30.6731 14.9196 30.9904 13.8907 30.1442L12.7118 29.0346L8.85411 33L0 22.8462L3.34316 19.4042C2.02054 17.5914 2.79207 15.6276 3.34316 14.8722L9.95628 8.07432ZM28.969 11.7565L20.2646 3.1429L23.3569 0L32 8.64081L28.969 11.7565ZM15.4672 25.6356L21.7106 19.25C22.2617 19.8165 22.4482 20.6072 21.7106 21.3654L16.0183 27.3351C15.1366 28.2415 14.5487 27.7127 14.365 27.3351L11.0585 23.3696L9.95629 24.5026C8.54019 25.9135 6.17363 23.3696 7.20083 22.2366L8.30301 21.1037L5.54755 18.2712C4.6658 17.3648 5.18015 16.3829 5.54755 16.0052L10.5074 10.9068C11.6096 9.77379 12.3106 10.1162 12.8617 10.6827L7.20083 16.5717L9.95629 19.4042L13.2628 16.0052C15.4672 14.3057 17.1205 16.5717 15.4672 18.2712L12.1607 21.6701L15.4672 25.6356Z" fill="#4FC344" fill-opacity="0.76"/>
</svg>
