<svg width="20" height="23" viewBox="0 0 20 23" fill="none" xmlns="http://www.w3.org/2000/svg">
<path fill-rule="evenodd" clip-rule="evenodd" d="M5.55556 0C4.94191 0 4.44444 0.514873 4.44444 1.15V2.3H3.33333C1.49238 2.3 0 3.84462 0 5.75V8.05V19.55C0 21.4554 1.49239 23 3.33333 23H16.6667C18.5076 23 20 21.4554 20 19.55V8.05V5.75C20 3.84462 18.5076 2.3 16.6667 2.3H15.5556V1.15C15.5556 0.514873 15.0581 0 14.4444 0C13.8308 0 13.3333 0.514873 13.3333 1.15V2.3H6.66667V1.15C6.66667 0.514873 6.16921 0 5.55556 0ZM14.4444 4.6H5.55556H3.33333C2.71968 4.6 2.22222 5.11487 2.22222 5.75V6.9H17.7778V5.75C17.7778 5.11487 17.2803 4.6 16.6667 4.6H14.4444ZM2.22222 19.55V9.2L17.7778 9.2V19.55C17.7778 20.1851 17.2803 20.7 16.6667 20.7H3.33333C2.71968 20.7 2.22222 20.1851 2.22222 19.55Z" fill="#F8D800"/>
</svg>
