<svg width="23" height="23" viewBox="0 0 23 23" fill="none" xmlns="http://www.w3.org/2000/svg">
<path d="M23 11.5C23 17.8513 17.8513 23 11.5 23C5.14873 23 0 17.8513 0 11.5C0 5.14873 5.14873 0 11.5 0C17.8513 0 23 5.14873 23 11.5ZM1.98167 11.5C1.98167 16.7568 6.24317 21.0183 11.5 21.0183C16.7568 21.0183 21.0183 16.7568 21.0183 11.5C21.0183 6.24317 16.7568 1.98167 11.5 1.98167C6.24317 1.98167 1.98167 6.24317 1.98167 11.5Z" fill="#F8D800"/>
<path d="M11.4695 5.73475C10.9304 5.73475 10.4934 6.17178 10.4934 6.71088V12.393C10.4934 13.1296 11.0905 13.7268 11.8272 13.7268H16.5789C17.1096 13.7268 17.5398 13.2966 17.5398 12.7659V12.7659C17.5398 12.2352 17.1096 11.805 16.5789 11.805H12.4456V6.71087C12.4456 6.17177 12.0086 5.73475 11.4695 5.73475V5.73475Z" fill="#F8D800"/>
</svg>
