<svg width="28" height="26" viewBox="0 0 28 26" fill="none" xmlns="http://www.w3.org/2000/svg">
<path fill-rule="evenodd" clip-rule="evenodd" d="M27.1121 0L13.1121 0C11.1121 0 8.61206 1.5 6.61205 3.99999C5.5519 5.32517 2.77873 8.83333 1.11207 11C0.11205 12.3 -0.190511 14.0922 0.112067 15C0.512067 16.2 1.61205 21.1667 2.11205 23C2.89719 25.8789 4.78124 26 5.98124 26H24.6121C26.6121 26 27.1121 25 27.1121 23V0ZM24.6121 11.5H4.11206C5.64942 9.49999 9.00171 5.19999 10.1121 3.99999C11.2224 2.79999 12.908 2.5 13.6121 2.5H24.6121V11.5Z" fill="#4FC344" fill-opacity="0.76"/>
</svg>
