<svg width="34" height="22" viewBox="0 0 34 22" fill="none" xmlns="http://www.w3.org/2000/svg">
<path d="M32.3308 6C35.3539 11.6 33.5904 18.0476 32.3308 20.5714H28.5518C28.2159 20.5714 28.132 20.2857 28.132 20.1429V17.2857H26.0326V21.4286C26.0326 21.8857 25.6593 22 25.4727 22H13.2962L8.67752 18.4286H3.63896C3.30306 18.4286 3.21908 17.9524 3.21908 17.7143V12H1.81948V16.1429C1.81948 17.5 0 17.5 0 16.1429V5.71429C0 4.5 1.81948 4.5 1.81948 5.71429V9.42857H3.21908V5.85714C3.21908 5.4 3.59231 5.28571 3.77892 5.28571H6.57812L8.67752 2.85714H12.1765V1.57143H10.0771C9 1.57143 9 0 10.0771 0H19.5944C20.5 0 20.5 1.57143 19.5944 1.57143H16.9352V2.85714H21.2739L23.0934 4.85714H26.1725C26.5084 4.85714 26.5924 5.14286 26.5924 5.28571V9.28572H27.7121V6.42857C27.8241 6.08571 28.132 6 28.2719 6H32.3308Z" fill="#4FC444" fill-opacity="0.76"/>
</svg>
