<svg width="18" height="18" viewBox="0 0 18 18" fill="none" xmlns="http://www.w3.org/2000/svg">
<path d="M14.9723 16.5C14.3286 16.5448 13.6961 16.3148 13.2315 15.867C12.4748 15.0585 12.5648 13.7002 12.66 12.2625C12.6908 11.7975 12.7223 11.3265 12.7223 10.8743C12.7223 6.74926 11.3108 6.74926 10.8473 6.74926C10.6402 6.74926 10.4723 6.58136 10.4723 6.37425C10.4723 6.16714 10.6402 5.99924 10.8473 5.99924C13.4723 5.99924 13.4723 9.66825 13.4723 10.8743C13.4723 11.343 13.4408 11.8298 13.4086 12.312C13.3246 13.5825 13.2451 14.7832 13.7791 15.354C14.1034 15.6479 14.5366 15.7917 14.9723 15.75C15.2784 15.7724 15.5781 15.654 15.7861 15.4282C16.4453 14.6625 16.1408 12.6248 15.9181 11.1368C15.8143 10.5542 15.7489 9.96543 15.7223 9.37427V7.12427C15.7223 7.00625 15.7779 6.89509 15.8724 6.82429C16.6051 6.27979 16.5474 5.8493 16.4956 5.50505C16.4823 5.42064 16.4745 5.33545 16.4724 5.25006C15.586 3.67151 14.0437 2.56869 12.2634 2.2403C12.0614 2.19371 11.9355 1.99223 11.9821 1.7903C12.0287 1.58836 12.2302 1.46246 12.4321 1.50905C15.7366 2.26955 17.2224 4.70855 17.2224 5.25006C17.2247 5.30037 17.2302 5.35046 17.2388 5.40007C17.391 6.1322 17.0888 6.88409 16.4723 7.30733V9.37508C16.5008 9.92841 16.5634 10.4795 16.6598 11.0251C16.9171 12.7501 17.2381 14.8913 16.3538 15.9166C16.0055 16.3103 15.4974 16.5249 14.9723 16.5Z" fill="#455A64"/>
<path d="M16.0972 7.49998C15.9977 7.50016 15.9022 7.46078 15.8317 7.39047C13.7377 5.29646 13.992 4.19997 15.0817 3.11023C15.2307 2.96634 15.4681 2.97048 15.612 3.11944C15.7524 3.26478 15.7524 3.49516 15.612 3.64049C14.9768 4.27573 14.3775 4.875 16.362 6.86024C16.5086 7.00649 16.5089 7.24394 16.3627 7.39057C16.2921 7.46127 16.1963 7.50093 16.0965 7.50075L16.0972 7.49998Z" fill="#455A64"/>
<path d="M9.34729 0H3.34728C2.31175 0 1.47229 0.839461 1.47229 1.87499V16.125C1.47229 16.3321 1.6402 16.5 1.8473 16.5H10.8473C11.0544 16.5 11.2223 16.3321 11.2223 16.125V1.87499C11.2223 0.839461 10.3828 0 9.34729 0Z" fill="#F44336"/>
<path d="M3.3473 1.50002H9.34732C9.55443 1.50002 9.72233 1.66792 9.72233 1.87503V6.37503C9.72233 6.58213 9.55443 6.75004 9.34732 6.75004H3.3473C3.1402 6.75004 2.97229 6.58213 2.97229 6.37503V1.87503C2.97229 1.66789 3.1402 1.50002 3.3473 1.50002Z" fill="#CFD8DC"/>
<path d="M10.8473 15.75H1.84729C1.22597 15.75 0.72229 16.2537 0.72229 16.875V17.625C0.72229 17.8321 0.890196 18 1.0973 18H11.5973C11.8044 18 11.9723 17.8321 11.9723 17.625V16.875C11.9723 16.2537 11.4686 15.75 10.8473 15.75Z" fill="#455A64"/>
</svg>
