<svg width="155" height="98" viewBox="0 0 155 98" fill="none" xmlns="http://www.w3.org/2000/svg">
<path d="M46.584 35.352C51.576 35.352 55.4 36.248 58.056 38.04C60.712 39.8 62.04 42.552 62.04 46.296C62.04 48.632 61.496 50.536 60.408 52.008C59.352 53.448 57.816 54.584 55.8 55.416C56.472 56.248 57.176 57.208 57.912 58.296C58.648 59.352 59.368 60.472 60.072 61.656C60.808 62.808 61.512 64.024 62.184 65.304C62.856 66.552 63.48 67.784 64.056 69H55.656C55.048 67.912 54.424 66.808 53.784 65.688C53.176 64.568 52.536 63.48 51.864 62.424C51.224 61.368 50.584 60.376 49.944 59.448C49.304 58.488 48.664 57.624 48.024 56.856H44.328V69H36.84V36.216C38.472 35.896 40.152 35.672 41.88 35.544C43.64 35.416 45.208 35.352 46.584 35.352ZM47.016 41.736C46.472 41.736 45.976 41.752 45.528 41.784C45.112 41.816 44.712 41.848 44.328 41.88V50.904H46.44C49.256 50.904 51.272 50.552 52.488 49.848C53.704 49.144 54.312 47.944 54.312 46.248C54.312 44.616 53.688 43.464 52.44 42.792C51.224 42.088 49.416 41.736 47.016 41.736Z" fill="#F8D800"/>
<path d="M78.0236 64.008C78.7276 64.008 79.3996 63.992 80.0396 63.96C80.6796 63.928 81.1916 63.88 81.5756 63.816V58.392C81.2876 58.328 80.8556 58.264 80.2796 58.2C79.7036 58.136 79.1756 58.104 78.6956 58.104C78.0236 58.104 77.3836 58.152 76.7756 58.248C76.1996 58.312 75.6876 58.456 75.2396 58.68C74.7916 58.904 74.4396 59.208 74.1836 59.592C73.9276 59.976 73.7996 60.456 73.7996 61.032C73.7996 62.152 74.1676 62.936 74.9036 63.384C75.6716 63.8 76.7116 64.008 78.0236 64.008ZM77.4476 43.08C79.5596 43.08 81.3196 43.32 82.7276 43.8C84.1356 44.28 85.2556 44.968 86.0876 45.864C86.9516 46.76 87.5596 47.848 87.9116 49.128C88.2636 50.408 88.4396 51.832 88.4396 53.4V68.28C87.4156 68.504 85.9916 68.76 84.1676 69.048C82.3436 69.368 80.1356 69.528 77.5436 69.528C75.9116 69.528 74.4236 69.384 73.0796 69.096C71.7676 68.808 70.6316 68.344 69.6716 67.704C68.7116 67.032 67.9756 66.168 67.4636 65.112C66.9516 64.056 66.6956 62.76 66.6956 61.224C66.6956 59.752 66.9836 58.504 67.5596 57.48C68.1676 56.456 68.9676 55.64 69.9596 55.032C70.9516 54.424 72.0876 53.992 73.3676 53.736C74.6476 53.448 75.9756 53.304 77.3516 53.304C78.2796 53.304 79.0956 53.352 79.7996 53.448C80.5356 53.512 81.1276 53.608 81.5756 53.736V53.064C81.5756 51.848 81.2076 50.872 80.4716 50.136C79.7356 49.4 78.4556 49.032 76.6316 49.032C75.4156 49.032 74.2156 49.128 73.0316 49.32C71.8476 49.48 70.8236 49.72 69.9596 50.04L69.0476 44.28C69.4636 44.152 69.9756 44.024 70.5836 43.896C71.2236 43.736 71.9116 43.608 72.6476 43.512C73.3836 43.384 74.1516 43.288 74.9516 43.224C75.7836 43.128 76.6156 43.08 77.4476 43.08ZM101.003 55.56C101.003 59.56 102.619 61.56 105.851 61.56C106.587 61.56 107.275 61.464 107.915 61.272C108.555 61.08 109.099 60.856 109.547 60.6V49.176C109.195 49.112 108.779 49.064 108.299 49.032C107.819 48.968 107.259 48.936 106.619 48.936C104.731 48.936 103.323 49.56 102.395 50.808C101.467 52.056 101.003 53.64 101.003 55.56ZM116.699 65.832C116.699 69.96 115.643 73.016 113.531 75C111.451 77.016 108.219 78.024 103.835 78.024C102.299 78.024 100.763 77.88 99.2269 77.592C97.6909 77.336 96.2669 76.984 94.9549 76.536L96.2029 70.536C97.3229 70.984 98.4909 71.336 99.7069 71.592C100.955 71.848 102.363 71.976 103.931 71.976C105.979 71.976 107.419 71.528 108.251 70.632C109.115 69.736 109.547 68.584 109.547 67.176V66.264C108.779 66.616 107.979 66.888 107.147 67.08C106.347 67.24 105.467 67.32 104.507 67.32C101.019 67.32 98.3469 66.296 96.4909 64.248C94.6349 62.168 93.7069 59.272 93.7069 55.56C93.7069 53.704 93.9949 52.024 94.5709 50.52C95.1469 48.984 95.9789 47.672 97.0669 46.584C98.1869 45.496 99.5469 44.664 101.147 44.088C102.747 43.48 104.555 43.176 106.571 43.176C107.435 43.176 108.315 43.224 109.211 43.32C110.139 43.384 111.051 43.48 111.947 43.608C112.843 43.736 113.691 43.896 114.491 44.088C115.323 44.248 116.059 44.424 116.699 44.616V65.832ZM122.207 56.568C122.207 54.328 122.543 52.376 123.215 50.712C123.919 49.016 124.831 47.608 125.951 46.488C127.071 45.368 128.351 44.52 129.791 43.944C131.263 43.368 132.767 43.08 134.303 43.08C137.887 43.08 140.719 44.184 142.799 46.392C144.879 48.568 145.919 51.784 145.919 56.04C145.919 56.456 145.903 56.92 145.871 57.432C145.839 57.912 145.807 58.344 145.775 58.728H129.551C129.711 60.2 130.399 61.368 131.615 62.232C132.831 63.096 134.463 63.528 136.511 63.528C137.823 63.528 139.103 63.416 140.351 63.192C141.631 62.936 142.671 62.632 143.471 62.28L144.431 68.088C144.047 68.28 143.535 68.472 142.895 68.664C142.255 68.856 141.535 69.016 140.735 69.144C139.967 69.304 139.135 69.432 138.239 69.528C137.343 69.624 136.447 69.672 135.551 69.672C133.279 69.672 131.295 69.336 129.599 68.664C127.935 67.992 126.543 67.08 125.423 65.928C124.335 64.744 123.519 63.352 122.975 61.752C122.463 60.152 122.207 58.424 122.207 56.568ZM139.007 53.832C138.975 53.224 138.863 52.632 138.671 52.056C138.511 51.48 138.239 50.968 137.855 50.52C137.503 50.072 137.039 49.704 136.463 49.416C135.919 49.128 135.231 48.984 134.399 48.984C133.599 48.984 132.911 49.128 132.335 49.416C131.759 49.672 131.279 50.024 130.895 50.472C130.511 50.92 130.207 51.448 129.983 52.056C129.791 52.632 129.647 53.224 129.551 53.832H139.007Z" fill="white"/>
<path d="M29.836 85.2C31.236 85.2 32.3047 85.4567 33.042 85.97C33.7887 86.4833 34.162 87.2673 34.162 88.322C34.162 89.638 33.5133 90.5293 32.216 90.996C32.3933 91.2107 32.594 91.472 32.818 91.78C33.042 92.088 33.2707 92.424 33.504 92.788C33.7373 93.1427 33.9613 93.5113 34.176 93.894C34.3907 94.2673 34.582 94.636 34.75 95H32.776C32.5987 94.664 32.4073 94.328 32.202 93.992C31.9967 93.6467 31.7867 93.3153 31.572 92.998C31.3667 92.6713 31.1613 92.368 30.956 92.088C30.7507 91.7987 30.5593 91.542 30.382 91.318C30.2513 91.3273 30.1393 91.332 30.046 91.332C29.9527 91.332 29.864 91.332 29.78 91.332H28.926V95H27.162V85.438C27.5913 85.3447 28.0487 85.284 28.534 85.256C29.0193 85.2187 29.4533 85.2 29.836 85.2ZM29.962 86.726C29.5887 86.726 29.2433 86.74 28.926 86.768V89.904H29.696C30.1253 89.904 30.5033 89.8807 30.83 89.834C31.1567 89.7873 31.4273 89.7033 31.642 89.582C31.866 89.4607 32.034 89.2973 32.146 89.092C32.258 88.8867 32.314 88.6253 32.314 88.308C32.314 88.0093 32.258 87.7573 32.146 87.552C32.034 87.3467 31.8707 87.1833 31.656 87.062C31.4507 86.9407 31.2033 86.8567 30.914 86.81C30.6247 86.754 30.3073 86.726 29.962 86.726ZM44.436 90.142C44.436 90.674 44.5014 91.1593 44.632 91.598C44.7627 92.0273 44.9494 92.396 45.192 92.704C45.444 93.0027 45.7474 93.236 46.102 93.404C46.4567 93.572 46.858 93.656 47.306 93.656C47.7447 93.656 48.1414 93.572 48.496 93.404C48.8507 93.236 49.1494 93.0027 49.392 92.704C49.644 92.396 49.8354 92.0273 49.966 91.598C50.0967 91.1593 50.162 90.674 50.162 90.142C50.162 89.61 50.0967 89.1293 49.966 88.7C49.8354 88.2613 49.644 87.8927 49.392 87.594C49.1494 87.286 48.8507 87.048 48.496 86.88C48.1414 86.712 47.7447 86.628 47.306 86.628C46.858 86.628 46.4567 86.712 46.102 86.88C45.7474 87.048 45.444 87.286 45.192 87.594C44.9494 87.902 44.7627 88.2707 44.632 88.7C44.5014 89.1293 44.436 89.61 44.436 90.142ZM52.01 90.142C52.01 90.9727 51.884 91.7053 51.632 92.34C51.3894 92.9747 51.0534 93.5067 50.624 93.936C50.204 94.356 49.7094 94.6733 49.14 94.888C48.5707 95.1027 47.964 95.21 47.32 95.21C46.676 95.21 46.0647 95.1027 45.486 94.888C44.9167 94.6733 44.4174 94.356 43.988 93.936C43.568 93.5067 43.232 92.9747 42.98 92.34C42.728 91.7053 42.602 90.9727 42.602 90.142C42.602 89.3113 42.728 88.5833 42.98 87.958C43.232 87.3233 43.5727 86.7913 44.002 86.362C44.4407 85.9327 44.9447 85.6107 45.514 85.396C46.0834 85.1813 46.6854 85.074 47.32 85.074C47.9547 85.074 48.5567 85.1813 49.126 85.396C49.6954 85.6107 50.19 85.9327 50.61 86.362C51.0394 86.7913 51.38 87.3233 51.632 87.958C51.884 88.5833 52.01 89.3113 52.01 90.142ZM67.0772 93.474V95H60.9452V85.298H62.7092V93.474H67.0772ZM75.4237 95V85.298H81.6537V86.796H77.1877V89.19H81.1637V90.66H77.1877V93.502H81.9897V95H75.4237ZM103.638 85.2C105.048 85.2 106.126 85.4567 106.872 85.97C107.628 86.4833 108.006 87.286 108.006 88.378C108.006 88.9473 107.904 89.4373 107.698 89.848C107.502 90.2493 107.213 90.5807 106.83 90.842C106.448 91.094 105.981 91.2807 105.43 91.402C104.88 91.5233 104.25 91.584 103.54 91.584H102.658V95H100.894V85.438C101.305 85.3447 101.758 85.284 102.252 85.256C102.756 85.2187 103.218 85.2 103.638 85.2ZM103.764 86.726C103.316 86.726 102.948 86.74 102.658 86.768V90.072H103.512C104.362 90.072 105.015 89.9553 105.472 89.722C105.93 89.4793 106.158 89.0267 106.158 88.364C106.158 88.0467 106.098 87.7807 105.976 87.566C105.855 87.3513 105.687 87.1833 105.472 87.062C105.258 86.9407 105.001 86.8567 104.702 86.81C104.413 86.754 104.1 86.726 103.764 86.726ZM122.749 93.474V95H116.617V85.298H118.381V93.474H122.749ZM137.891 95C137.76 94.6173 137.625 94.2393 137.485 93.866C137.345 93.4927 137.21 93.11 137.079 92.718H132.991C132.86 93.11 132.725 93.4973 132.585 93.88C132.454 94.2533 132.324 94.6267 132.193 95H130.359C130.723 93.964 131.068 93.0073 131.395 92.13C131.722 91.2527 132.039 90.422 132.347 89.638C132.664 88.854 132.977 88.1073 133.285 87.398C133.593 86.6887 133.91 85.9887 134.237 85.298H135.903C136.23 85.9887 136.547 86.6887 136.855 87.398C137.163 88.1073 137.471 88.854 137.779 89.638C138.096 90.422 138.418 91.2527 138.745 92.13C139.081 93.0073 139.431 93.964 139.795 95H137.891ZM135.035 87.174C134.82 87.6687 134.573 88.2707 134.293 88.98C134.022 89.6893 133.738 90.4593 133.439 91.29H136.631C136.332 90.4593 136.043 89.6847 135.763 88.966C135.483 88.2473 135.24 87.65 135.035 87.174ZM150.285 89.596C150.705 88.896 151.116 88.1867 151.517 87.468C151.919 86.7493 152.283 86.026 152.609 85.298H154.569C154.047 86.2873 153.501 87.272 152.931 88.252C152.371 89.2227 151.769 90.2027 151.125 91.192V95H149.361V91.22C148.717 90.2213 148.111 89.232 147.541 88.252C146.972 87.272 146.426 86.2873 145.903 85.298H147.975C148.302 86.026 148.661 86.7493 149.053 87.468C149.445 88.1867 149.856 88.896 150.285 89.596Z" fill="white"/>
<path d="M24 0L30.4822 17.5178L48 24L30.4822 30.4822L24 48L17.5178 30.4822L0 24L17.5178 17.5178L24 0Z" fill="#F8D800"/>
</svg>
