<svg width="22" height="28" viewBox="0 0 22 28" fill="none" xmlns="http://www.w3.org/2000/svg">
<path fill-rule="evenodd" clip-rule="evenodd" d="M5.91545 5.86177L5.91545 12.5272C5.91545 15.4722 8.25444 17.8596 11.1397 17.8596C14.025 17.8596 16.364 15.4722 16.364 12.5272L16.364 5.86177C16.364 2.91679 14.025 0.529419 11.1397 0.529419C8.25443 0.529419 5.91545 2.91679 5.91545 5.86177ZM11.1397 3.1956C12.5824 3.1956 13.7518 4.38928 13.7518 5.86177L13.7518 12.5272C13.7518 13.9997 12.5824 15.1934 11.1397 15.1934C9.69707 15.1934 8.52758 13.9997 8.52758 12.5272L8.52758 5.86177C8.52758 4.38928 9.69707 3.1956 11.1397 3.1956ZM20.2822 11.1941C19.5609 11.1941 18.9761 11.791 18.9761 12.5272C18.9761 16.9447 15.4676 20.5257 11.1397 20.5257C6.81179 20.5257 3.30332 16.9447 3.30332 12.5272C3.30332 11.791 2.71857 11.1941 1.99725 11.1941C1.27593 11.1941 0.691185 11.791 0.691185 12.5272C0.691185 17.9657 4.67951 22.4534 9.83365 23.1094V25.8581C9.83365 26.5943 10.4184 27.1912 11.1397 27.1912C11.861 27.1912 12.4458 26.5943 12.4458 25.8581V23.1094C17.5999 22.4534 21.5882 17.9657 21.5882 12.5272C21.5882 11.791 21.0035 11.1941 20.2822 11.1941Z" fill="#F8D800"/>
</svg>
