<svg width="30" height="30" viewBox="0 0 30 30" fill="none" xmlns="http://www.w3.org/2000/svg">
<path fill-rule="evenodd" clip-rule="evenodd" d="M30 5C30 2.23858 27.7614 0 25 0H5C2.23858 0 0 2.23858 0 5V25C0 27.7614 2.23858 30 5 30H25C27.7614 30 30 27.7614 30 25V5ZM20.9068 10.1263C21.1882 11.0819 20.3467 11.8767 19.3506 11.8767C18.3096 11.8767 17.6124 10.9431 17.0629 10.059C16.7654 9.58037 16.3506 9.3832 15.9863 9.24658C15.4247 9.10959 14.1616 9.04931 13.6027 9.73973C13.0087 10.4735 13.1277 11.0587 13.2525 11.6722C13.2745 11.7803 13.2966 11.8892 13.3151 12C13.7447 12.798 14.7016 13.1783 16.0144 13.7001C16.4595 13.877 16.9455 14.0701 17.4658 14.3014C18.9452 14.9589 21.5342 16.274 21.1233 19.5205C20.6447 23.3014 16.4384 23.6301 16.1918 23.6301V24.863C16.1918 25.4077 15.7502 25.8493 15.2055 25.8493C14.6608 25.8493 14.2192 25.4077 14.2192 24.863V23.6301C11.2247 23.4487 9.77993 21.7306 9.17192 20.1203C8.78129 19.0857 9.69101 18.1644 10.7969 18.1644H12.2595C12.3943 18.1644 12.5058 18.2624 12.5155 18.3969C12.5656 19.0907 12.6747 20.603 14.9178 20.9178C17.589 21.2927 18.6164 17.9589 15.863 16.8493C11.6397 15.3382 10.9964 14.5456 10.4889 13.9203C10.4581 13.8823 10.4278 13.845 10.3973 13.8082C8.13699 10.7671 10.3973 6.49315 14.4247 6.49315V5.0137C14.4247 4.44628 14.8846 3.9863 15.4521 3.9863C16.0195 3.9863 16.4795 4.44628 16.4795 5.0137V6.49315C19.2384 6.884 20.4565 8.59727 20.9068 10.1263Z" fill="#F8D800" fill-opacity="0.8"/>
</svg>
