<svg width="31" height="30" viewBox="0 0 31 30" fill="none" xmlns="http://www.w3.org/2000/svg">
<path fill-rule="evenodd" clip-rule="evenodd" d="M23.5657 6.51692C23.9538 6.90499 24.0604 7.49308 23.8333 7.99271L14.5235 28.4742C14.2764 29.0179 13.6943 29.3271 13.1055 29.2276C12.5167 29.1281 12.0686 28.6447 12.0139 28.0501L11.2241 19.4665L1.95555 18.0594C1.37936 17.9719 0.929237 17.516 0.849079 16.9388C0.768923 16.3615 1.0778 15.8003 1.60836 15.5591L22.0899 6.2493C22.5895 6.0222 23.1776 6.12884 23.5657 6.51692ZM6.73443 16.1215L12.6383 17.0179C13.2369 17.1087 13.6963 17.5961 13.7518 18.1989L14.181 22.8642L19.9833 10.0993L6.73443 16.1215Z" fill="#F8D800"/>
</svg>
