<svg width="18" height="18" viewBox="0 0 18 18" fill="none" xmlns="http://www.w3.org/2000/svg">
<path fill-rule="evenodd" clip-rule="evenodd" d="M0 5C0 2.23858 2.23858 0 5 0H13C15.7614 0 18 2.23858 18 5V13C18 15.7614 15.7614 18 13 18H5C2.23858 18 0 15.7614 0 13V5ZM14.6799 9.095C14.6799 9.755 14.5772 10.3307 14.3719 10.822C14.1666 11.306 13.8732 11.713 13.4919 12.043C13.1179 12.3657 12.6632 12.6077 12.1279 12.769C11.5999 12.923 11.0132 13 10.3679 13C10.0599 13 9.71158 12.9853 9.32291 12.956C8.93425 12.934 8.56391 12.8827 8.21191 12.802V5.399C8.56391 5.31833 8.93791 5.267 9.33391 5.245C9.72991 5.223 10.0819 5.212 10.3899 5.212C11.0279 5.212 11.6109 5.289 12.1389 5.443C12.6669 5.58967 13.1179 5.82433 13.4919 6.147C13.8732 6.46233 14.1666 6.86567 14.3719 7.357C14.5772 7.841 14.6799 8.42033 14.6799 9.095ZM9.91691 11.79C9.78491 11.7827 9.67858 11.7753 9.59791 11.768V6.444C9.77391 6.422 10.0672 6.411 10.4779 6.411C11.4166 6.411 12.1096 6.642 12.5569 7.104C13.0042 7.566 13.2279 8.22967 13.2279 9.095C13.2279 9.94567 12.9969 10.6093 12.5349 11.086C12.0802 11.5553 11.3872 11.79 10.4559 11.79H9.91691ZM6.386 5.289H5V12.912H6.386V5.289Z" fill="#F8D800" fill-opacity="0.8"/>
</svg>
