<svg width="311" height="311" viewBox="0 0 311 311" fill="none" xmlns="http://www.w3.org/2000/svg">
<path d="M-1.35942e-05 155.5C-2.11021e-05 69.6198 69.6197 8.21373e-05 155.5 7.46294e-05C241.38 6.71215e-05 311 69.6198 311 155.5C311 241.38 241.38 311 155.5 311C69.6197 311 -6.08635e-06 241.38 -1.35942e-05 155.5ZM264.35 155.5C264.35 95.3839 215.616 46.6501 155.5 46.6501C95.3838 46.6501 46.65 95.3839 46.65 155.5C46.65 215.616 95.3838 264.35 155.5 264.35C215.616 264.35 264.35 215.616 264.35 155.5Z" fill="#9A9A9A" fill-opacity="0.56"/>
</svg>
