<svg width="13" height="13" viewBox="0 0 13 13" fill="none" xmlns="http://www.w3.org/2000/svg">
<path fill-rule="evenodd" clip-rule="evenodd" d="M5.67303 11.1248C8.80616 11.1248 11.3461 8.63443 11.3461 5.5624C11.3461 2.49037 8.80616 0 5.67303 0C2.5399 0 0 2.49037 0 5.5624C0 8.63443 2.5399 11.1248 5.67303 11.1248ZM5.67303 9.64295C7.94215 9.64295 9.83325 8.15964 9.83325 5.56385C9.83325 2.96806 8.32053 1.48476 5.67303 1.48476C3.02553 1.48476 1.51281 2.96806 1.51281 5.5624C1.51281 8.15674 3.40391 9.64295 5.67303 9.64295Z" fill="#C4C4C4"/>
<path d="M9.38894 8.19151L12.4733 11.4346C12.7625 11.7387 12.7457 12.2209 12.4359 12.5041C12.1347 12.7796 11.6685 12.7633 11.3872 12.4675L8.28254 9.20312L9.38894 8.19151Z" fill="#C4C4C4"/>
</svg>
