<svg width="19" height="20" viewBox="0 0 19 20" fill="none" xmlns="http://www.w3.org/2000/svg">
<path d="M16.3206 8.35643L16.3205 8.35661C14.8718 12.0715 12.5799 15.3986 9.62623 18.0755C3.39516 12.3739 2.027 5.85412 1.7518 3.94975L9.62573 1.71631L17.4997 3.94974C17.2723 5.45783 16.8768 6.93584 16.3206 8.35643ZM9.66666 0.855693L9.62573 0.844082L9.58479 0.855693L0.959067 3.30243L0.842946 3.33537L0.850277 3.45585L1 3.44673C0.850277 3.45585 0.850283 3.45594 0.850291 3.45607L0.850317 3.4565L0.850408 3.45792L0.850749 3.46307L0.852146 3.48246C0.853422 3.4994 0.855422 3.52431 0.858364 3.55688C0.864248 3.62202 0.873897 3.71785 0.889047 3.84195C0.919345 4.09014 0.971649 4.45149 1.05984 4.90682C1.2362 5.81742 1.55617 7.10427 2.1309 8.61372C3.28046 11.6329 5.44954 15.5432 9.52692 19.1129L9.62573 19.1994L9.72453 19.1129C13.8018 15.5433 15.9709 11.633 17.1205 8.61382C17.6952 7.10435 18.0152 5.81747 18.1916 4.90686C18.2798 4.45152 18.3321 4.09016 18.3624 3.84196C18.3776 3.71786 18.3872 3.62203 18.3931 3.55689C18.396 3.52431 18.398 3.49941 18.3993 3.48247L18.4007 3.46307L18.401 3.45792L18.4011 3.4565L18.4012 3.45608C18.4012 3.45595 18.4012 3.45585 18.2515 3.44673L18.4012 3.45585L18.4085 3.33537L18.2924 3.30243L9.66666 0.855693Z" fill="#F8D800" stroke="#F8D800" stroke-width="0.3"/>
<path d="M9.62573 1L1 3.44673C1 3.44673 1.5143 11.8986 9.62573 19" fill="#F8D800"/>
</svg>
