<svg width="53" height="48" viewBox="0 0 53 48" fill="none" xmlns="http://www.w3.org/2000/svg">
<path fill-rule="evenodd" clip-rule="evenodd" d="M24.8417 0.116429C22.9335 0.551399 21.1867 1.69292 20.1142 3.20564C19.543 4.01128 1.18254 35.7559 0.711388 36.7523C0.155129 37.929 -0.00316585 38.6691 4.77258e-05 40.0804C0.00222466 41.051 0.0539528 41.5029 0.236505 42.1453C0.941106 44.6254 2.74226 46.6215 5.05572 47.486C6.47996 48.0183 5.61686 47.9975 26.3925 47.9995C47.3474 48.0013 46.513 48.0228 47.9366 47.4483C49.0083 47.016 49.7178 46.5341 50.633 45.6168C51.6243 44.6232 52.0928 43.9015 52.5091 42.7264C53.2529 40.6272 53.1525 38.6524 52.2009 36.6636C51.7498 35.7206 33.8961 4.78772 33.0896 3.55177C32.0512 1.96026 30.3157 0.695216 28.5008 0.206819C27.6437 -0.0237633 25.6705 -0.0725306 24.8417 0.116429ZM27.7851 14.4029C28.6529 14.827 29.2125 15.6162 29.3754 16.646C29.429 16.9844 29.3528 18.9136 29.1619 22.0515C28.9986 24.7353 28.8238 27.8986 28.7737 29.0813C28.6897 31.0569 28.6618 31.2715 28.4304 31.7207C28.0708 32.4185 27.4771 32.8073 26.6837 32.8647C25.6072 32.9424 24.8342 32.5014 24.4496 31.5902C24.2796 31.1874 24.2006 30.0497 23.5124 18.0772C23.4317 16.6723 23.5834 15.9765 24.1262 15.2637C24.485 14.7924 25.3825 14.1881 25.8432 14.1074C26.4064 14.0089 27.2376 14.1354 27.7851 14.4029ZM27.7851 35.3179C29.4566 36.1348 29.9022 38.4351 28.6617 39.8427C26.8741 41.871 23.5638 40.6104 23.5638 37.9015C23.5638 35.7144 25.7982 34.347 27.7851 35.3179Z" fill="white"/>
</svg>
